<?xml version="1.0" encoding="UTF-8" standalone="no"?>
<!-- Created with Inkscape (http://www.inkscape.org/) -->

<svg
   xmlns:dc="http://purl.org/dc/elements/1.1/"
   xmlns:cc="http://creativecommons.org/ns#"
   xmlns:rdf="http://www.w3.org/1999/02/22-rdf-syntax-ns#"
   xmlns:svg="http://www.w3.org/2000/svg"
   xmlns="http://www.w3.org/2000/svg"
   xmlns:sodipodi="http://sodipodi.sourceforge.net/DTD/sodipodi-0.dtd"
   xmlns:inkscape="http://www.inkscape.org/namespaces/inkscape"
   width="791.82202"
   height="738.1795"
   id="svg3003"
   version="1.1"
   inkscape:version="0.48.4 r9939"
   sodipodi:docname="logo.svg">
  <defs
     id="defs3005" />
  <sodipodi:namedview
     id="base"
     pagecolor="#ffffff"
     bordercolor="#666666"
     borderopacity="1.0"
     inkscape:pageopacity="0"
     inkscape:pageshadow="2"
     inkscape:zoom="1.1298065"
     inkscape:cx="395.91101"
     inkscape:cy="369.08975"
     inkscape:document-units="px"
     inkscape:current-layer="svg3003"
     showgrid="false"
     fit-margin-top="0"
     fit-margin-left="0"
     fit-margin-right="0"
     fit-margin-bottom="0"
     inkscape:window-width="1920"
     inkscape:window-height="1004"
     inkscape:window-x="0"
     inkscape:window-y="24"
     inkscape:window-maximized="1" />
  <metadata
     id="metadata3008">
    <rdf:RDF>
      <cc:Work
         rdf:about="">
        <dc:format>image/svg+xml</dc:format>
        <dc:type
           rdf:resource="http://purl.org/dc/dcmitype/StillImage" />
      </cc:Work>
    </rdf:RDF>
  </metadata>
  <path
     id="path3049"
     d="m 344.83317,737.84426 c -1.925,-0.2195 -8.4094,-0.8734 -14.41,-1.4531 -15.756,-1.5224 -32.826,-4.5768 -50.944,-9.1158 -94.91,-23.77 -176.33,-84.09003 -226.639999,-167.89003 -47.9670003,-79.89 -64.127,-175.52 -44.9810003,-266.18 C 39.152171,145.00533 155.26817,32.335326 304.82817,5.0553265 c 22.712,-4.14200001 35.527,-5.12290001 66,-5.05180001 20.281,0.0473 32.3,0.54629 41.677,1.73040001 125.76,15.8809995 231.95,90.5209995 287.68,202.2000035 20.332,40.749 32.279,82.086 37.236,128.83 2.0112,18.969 1.4384,64.858 -1.0319,82.666 -11.513,82.999 -47.679,156.85 -105.02,214.44 -57.932,58.18503 -135.63,96.07603 -217.54,106.09003 -12.683,1.5503 -60.483,2.8568 -69,1.8859 z m 70,-10.865 c 26.461,-3.713 53.548,-10.293 77,-18.703 15.286,-5.4824 15.706,-5.9563 7.8088,-8.8162 -15.062,-5.4545 -27.847,-13.93703 -41.386,-27.46003 -50.75,-50.68 -85.44,-158.57 -89.26,-277.56 l -0.6577,-20.5 -5.5,0.11325 c -3.0447,0.0627 -8.7617,1.2544 -12.806,2.6694 -59.946,20.972 -108.36,121.55 -121.64,252.72 -1.8781,18.55 -3.8142,54.573 -3.3859,62.99998 l 0.33033,6.5 4.5,2.2292 c 7.5338,3.7321 25.236,10.098 39.746,14.293 21.744,6.2863 45.413,10.635 72.754,13.366 10.066,1.0055 61.525,-0.3018 72.5,-1.8418 z m -198.99,-35.29 c 0.0191,-9.41793 2.2657,-48.22103 3.5464,-61.25003 14.312,-145.61 71.476,-254.15 139.65,-265.17 4.0113,-0.64848 7.8135,-1.6629 8.4495,-2.2542 0.85875,-0.79854 0.93118,-6.6001 0.2815,-22.548 -1.4637,-35.93 -4.5229,-63.765 -10.554,-96.027 -22.136,-118.41 -73.927,-198.220004 -131.53,-202.690004 l -7.6467,-0.59249 -13.353,6.998 c -31.349,16.429 -56.031,33.713 -80.115,56.103004 -93.076999,86.52 -133.9899993,214.74 -108.079999,338.68 20.127,96.28 79.609,181 163.399999,232.77 12.306,7.6011 32.865,18.70102 34.678,18.72202 0.69919,0.01 1.2524,-1.1971 1.2556,-2.7354 z m 321.02,-3.3037 c 68.825,-35.08903 127.42,-96.73103 160.3,-168.64003 44.196,-96.656 44.196,-204.96 0,-301.61 -49.615,-108.51 -150.16,-185.090004 -269.32,-205.120004 -22.491,-3.7807995 -40.055,-4.9046995 -67.247,-4.3028995 -26.006,0.57549 -39.477,2.0285995 -62.914,6.7863995 -23.406,4.7516 -59.349,15.908 -58.59,18.186 0.18763,0.56288 3.7016,2.2096 7.8089,3.6593 15.167,5.3536 27.612,13.923 42.512,29.272 42.521,43.806004 72.671,125.010004 83.842,225.820004 2.1766,19.641 3.4293,44.314 4.0454,79.672 0.54616,31.348 2.2314,58.167 5.1103,81.328 11.9,95.732 43.046,174.75 84.568,214.56 17.163,16.454 36.452,26.10203 52.69,26.35603 4.6253,0.072 6.8873,-0.7129 17.2,-5.9704 z m 87.652,44.34 c -0.32546,-0.5266 9.9641,-13.479 22.866,-28.784 12.902,-15.304 23.457,-28.18803 23.457,-28.62903 0,-0.44159 -0.9423,-1.3072 -2.094,-1.9236 l -2.094,-1.1207 2.2683,-2.4145 c 2.0698,-2.2032 3.0501,-2.4145 11.201,-2.4145 7.6599,0 8.8479,0.22099 8.3375,1.551 -0.32735,0.85307 -9.938,12.589 -21.357,26.08003 -11.419,13.491 -20.912,24.943 -21.095,25.449 -0.63529,1.7541 1.4321,0.8912 12.356,-5.1576 15.906,-8.807 36.089,-22.474 42.74,-28.941 5.1712,-5.02843 5.6997,-5.91873 5.1486,-8.67423 -0.5552,-2.776 -0.19427,-3.3596 3.7602,-6.0804 5.9368,-4.0846 12.24,-5.9594 14.297,-4.2523 0.84245,0.69918 1.5317,1.8425 1.5317,2.5406 0,2.1517 -8.8828,11.288 -17.397,17.89303 -23.96,18.588 -67.858,44.017 -78.056,45.216 -3.0084,0.3536 -5.5327,0.2086 -5.87,-0.3371 z m 57.937,-0.8497 c -1.5893,-4.1417 4.0079,-9.8749 34.596,-35.437 12.176,-10.175 22.612,-19.27501 23.192,-20.22301 0.8208,-1.3418 0.61638,-2.0611 -0.92391,-3.2507 -1.9554,-1.5101 -1.951,-1.5504 0.38286,-3.5269 2.0135,-1.7052 3.8157,-1.9993 12.25,-1.9993 7.2518,0 9.8857,0.33337 9.8758,1.25 -0.007,0.6875 -3.0448,3.7134 -6.75,6.7242 -3.7052,3.0108 -17.2,14.16601 -29.989,24.78801 -28.145,23.379 -31.285,27.163 -20.171,24.314 10.199,-2.6138 6.3876,2.3196 -4.8865,6.3257 -8.4048,2.9866 -16.641,3.4711 -17.576,1.034 z m -161.61,-0.2817 c 0,-1.693 3.5939,-3.9185 7.4448,-4.6102 6.3038,-1.1322 10.876,-3.8262 73.434,-43.27197 35.215,-22.204 60.705,-37.656 62.638,-37.969 1.7922,-0.29084 4.0307,-0.0967 4.9745,0.4315 1.4622,0.81826 -2.7869,6.2816 -28.731,36.941 -16.746,19.78897 -31.502,37.40897 -32.793,39.15397 -2.3066,3.1198 -2.3134,3.1984 -0.4069,4.6724 1.9022,1.4706 1.8941,1.5373 -0.42164,3.4986 -2.1366,1.8095 -3.8164,1.9993 -17.691,1.9993 -8.4316,0 -15.577,-0.399 -15.878,-0.8867 -0.9883,-1.5991 2.3166,-3.3338 9.0344,-4.7419 3.633,-0.7615 7.8969,-2.3042 9.4753,-3.4281 4.1541,-2.958 16.095,-16.921 15.637,-18.286 -0.27053,-0.8054 -4.7746,-1.1578 -14.803,-1.1578 h -14.414 l -12,7.8498 c -11.581,7.576 -17.5,12.228 -17.5,13.754 0,0.4013 1.2001,1.1296 2.6668,1.6185 l 2.6668,0.889 -2.3554,2.1944 c -2.1975,2.0472 -3.3151,2.1944 -16.667,2.1944 -7.8713,0 -14.311,-0.3803 -14.311,-0.845 z m 95.22,-35.405 c 2.6204,-2.0448 27.908,-31.95597 27.425,-32.43897 -0.76833,-0.76833 -51.616,31.92597 -51.057,32.82997 0.86254,1.3956 21.787,1.0494 23.632,-0.391 z m 153.78,-42.88197 c 0,-4.5854 11.882,-12.868 18.46,-12.868 5.0151,0 4.6677,2.7057 -1.0206,7.9489 -5.1081,4.7084 -9.8948,7.0511 -14.407,7.0511 -2.428,0 -3.0321,-0.42477 -3.0321,-2.1319 z"
     inkscape:connector-curvature="0"
     style="fill:#1d1d1d;fill-opacity:1" />
  <path
     style="fill:#ffffff;fill-opacity:1"
     d="M 204.81634,689.0315 C 143.82112,656.79665 95.82903,611.97445 61.549879,555.22782 34.77377,510.90193 18.447932,463.47601 11.779838,410.64782 9.8940329,395.70747 9.175227,357.86257 10.472808,341.83313 18.782883,239.17606 69.325081,145.81151 150.38224,83.384121 166.8021,70.738126 182.0599,61.080375 206.69883,47.737355 l 11.61866,-6.292 7.41115,0.893459 c 19.5207,2.353343 34.97958,10.108147 51.83936,26.004725 45.70871,43.097351 78.57362,133.342771 87.86284,241.267001 1.24398,14.45282 2.58764,47.92069 2.03911,50.79012 -0.47532,2.48656 -1.76649,3.03497 -12.62792,5.36361 -33.41602,7.16423 -65.00506,38.47989 -90.00201,89.22312 -28.71939,58.29968 -45.27513,133.2309 -48.5484,219.72992 -0.54516,14.40602 -1.03281,19.04029 -2.00048,19.01081 -0.34305,-0.0104 -4.60671,-2.12393 -9.4748,-4.69662 z"
     id="path3817"
     inkscape:connector-curvature="0" />
  <path
     style="fill:#ffffff;fill-opacity:1"
     d="m 344.22074,728.11233 c -33.60265,-1.81174 -80.66036,-12.87138 -111.19592,-26.13357 l -7.40846,-3.21764 0,-11.77965 c 0,-22.12587 3.34989,-63.28442 7.19351,-88.38339 9.83595,-64.22913 27.45387,-118.60642 51.47511,-158.87676 16.87595,-28.29164 39.2793,-50.68487 60.19624,-60.16907 5.38224,-2.44042 16.90098,-5.32888 21.25081,-5.32888 l 2.11355,0 0.60271,16.59577 c 1.22203,33.64826 4.08656,62.9692 8.97509,91.86791 15.027,88.83243 46.45656,159.64351 86.69258,195.31911 10.38497,9.20794 18.98566,14.76894 30.74029,19.87596 l 9.59267,4.16773 -2.44592,1.54664 c -3.02003,1.90967 -25.46969,9.37795 -39.17788,13.03323 -23.48601,6.26252 -42.66867,9.58497 -61.95751,10.73108 -19.62426,1.16604 -43.16609,1.47837 -56.64687,0.75153 l 0,0 z"
     id="path3819"
     inkscape:connector-curvature="0" />
  <path
     style="fill:#ffffff;fill-opacity:1"
     d="m 509.29326,692.43385 c -12.84854,-3.47454 -24.37602,-9.81501 -36.39299,-20.01725 -48.5176,-41.19078 -84.52569,-137.68514 -92.77838,-248.62722 -0.74236,-9.97958 -1.96013,-37.37487 -2.70616,-60.87842 -1.45366,-45.79678 -2.14486,-57.03694 -4.91053,-79.85364 -9.36245,-77.23985 -31.16036,-144.75407 -61.29751,-189.855519 -13.0835,-19.579975 -28.66836,-35.82991 -44.40004,-46.294789 -3.38908,-2.254449 -10.55561,-5.995304 -15.92563,-8.313013 -5.37002,-2.317708 -9.88292,-4.571749 -10.02866,-5.008981 -0.3041,-0.912302 4.1e-4,-1.046871 11.31622,-5.000774 21.81495,-7.622449 48.83411,-14.007145 72.83841,-17.211902 22.92715,-3.0609472 66.96697,-2.847105 91.20262,0.442849 133.99416,18.189513 245.7272,107.978509 291.82347,234.510179 38.12184,104.64231 25.18017,222.1118 -34.81202,315.98331 -33.77959,52.85588 -82.70175,97.84815 -135.88975,124.97379 -11.81328,6.02471 -13.04805,6.46068 -18.1447,6.4064 -3.00785,-0.032 -7.46031,-0.59679 -9.89435,-1.25502 l 0,0 z"
     id="path3821"
     inkscape:connector-curvature="0" />
</svg>
